<svg width="29" height="22" viewBox="0 0 29 22" fill="none" xmlns="http://www.w3.org/2000/svg">
<mask id="path-1-inside-1_3972_44" fill="white">
<path d="M0 0H29V2H0V0Z"/>
<path d="M0 10H29V12H0V10Z"/>
<path d="M0 20H29V22H0V20Z"/>
</mask>
<path d="M0 0H29V2H0V0Z" fill="black"/>
<path d="M0 10H29V12H0V10Z" fill="black"/>
<path d="M0 20H29V22H0V20Z" fill="black"/>
<path d="M0 0V-2H-2V0H0ZM29 0H31V-2H29V0ZM29 2V4H31V2H29ZM0 2H-2V4H0V2ZM0 10V8H-2V10H0ZM29 10H31V8H29V10ZM29 12V14H31V12H29ZM0 12H-2V14H0V12ZM0 20V18H-2V20H0ZM29 20H31V18H29V20ZM29 22V24H31V22H29ZM0 22H-2V24H0V22ZM0 2H29V-2H0V2ZM27 0V2H31V0H27ZM29 0H0V4H29V0ZM2 2V0H-2V2H2ZM0 12H29V8H0V12ZM27 10V12H31V10H27ZM29 10H0V14H29V10ZM2 12V10H-2V12H2ZM0 22H29V18H0V22ZM27 20V22H31V20H27ZM29 20H0V24H29V20ZM2 22V20H-2V22H2Z" fill="black" mask="url(#path-1-inside-1_3972_44)"/>
</svg>
