<svg width="88" height="32" viewBox="0 0 88 32" fill="none" xmlns="http://www.w3.org/2000/svg">
<path d="M45.2657 27.1475C45.2657 26.8662 45.3477 26.6318 45.5118 26.4443C45.6817 26.2568 45.9336 26.1631 46.2676 26.1631C46.6016 26.1631 46.8536 26.2568 47.0235 26.4443C47.1993 26.6318 47.2872 26.8662 47.2872 27.1475C47.2872 27.417 47.1993 27.6426 47.0235 27.8242C46.8536 28.0059 46.6016 28.0967 46.2676 28.0967C45.9336 28.0967 45.6817 28.0059 45.5118 27.8242C45.3477 27.6426 45.2657 27.417 45.2657 27.1475Z" fill="black"/>
<path d="M55.5137 25.4775C55.5137 25.0381 55.3467 24.6982 55.0127 24.458C54.6846 24.2119 54.1075 24.001 53.2813 23.8252C52.461 23.6494 51.8077 23.4385 51.3213 23.1924C50.8409 22.9463 50.4834 22.6533 50.2491 22.3135C50.0205 21.9736 49.9063 21.5693 49.9063 21.1006C49.9063 20.3213 50.2344 19.6621 50.8907 19.1231C51.5528 18.584 52.3965 18.3145 53.4219 18.3145C54.5 18.3145 55.3731 18.5928 56.0411 19.1494C56.7149 19.7061 57.0518 20.418 57.0518 21.2852H55.417C55.417 20.8398 55.2266 20.4561 54.8457 20.1338C54.4707 19.8115 53.9961 19.6504 53.4219 19.6504C52.8301 19.6504 52.3672 19.7793 52.0332 20.0371C51.6993 20.2949 51.5323 20.6318 51.5323 21.0479C51.5323 21.4404 51.6875 21.7363 51.9981 21.9356C52.3086 22.1348 52.8682 22.3252 53.6768 22.5068C54.4913 22.6885 55.1504 22.9053 55.6543 23.1572C56.1582 23.4092 56.5303 23.7139 56.7705 24.0713C57.0166 24.4229 57.1397 24.8535 57.1397 25.3633C57.1397 26.2129 56.7998 26.8955 56.1202 27.4111C55.4405 27.9209 54.5586 28.1758 53.4747 28.1758C52.7129 28.1758 52.0391 28.041 51.4532 27.7715C50.8672 27.502 50.4073 27.127 50.0733 26.6465C49.7452 26.1602 49.5811 25.6357 49.5811 25.0732H51.2071C51.2364 25.6182 51.4532 26.0518 51.8575 26.374C52.2676 26.6904 52.8067 26.8486 53.4747 26.8486C54.0899 26.8486 54.5821 26.7256 54.9512 26.4795C55.3262 26.2275 55.5137 25.8936 55.5137 25.4775Z" fill="black"/>
<path d="M60.8838 19.6416C61.6045 18.7568 62.542 18.3145 63.6963 18.3145C65.7061 18.3145 66.7198 19.4482 66.7374 21.7158V28H65.1114V21.707C65.1055 21.0215 64.9473 20.5147 64.6368 20.1865C64.3321 19.8584 63.8545 19.6943 63.2041 19.6943C62.6768 19.6943 62.2139 19.835 61.8155 20.1162C61.417 20.3975 61.1065 20.7666 60.8838 21.2236V28H59.2579V14.5H60.8838V19.6416Z" fill="black"/>
<path d="M68.7413 23.1572C68.7413 22.2256 68.9229 21.3877 69.2862 20.6436C69.6553 19.8994 70.1651 19.3252 70.8155 18.9209C71.4717 18.5166 72.2188 18.3145 73.0567 18.3145C74.3516 18.3145 75.3975 18.7627 76.1944 19.6592C76.9971 20.5557 77.3985 21.7481 77.3985 23.2363V23.3506C77.3985 24.2764 77.2198 25.1084 76.8624 25.8467C76.5108 26.5791 76.004 27.1504 75.3418 27.5606C74.6856 27.9707 73.9297 28.1758 73.0743 28.1758C71.7852 28.1758 70.7393 27.7275 69.9366 26.8311C69.1397 25.9346 68.7413 24.7481 68.7413 23.2715V23.1572ZM70.376 23.3506C70.376 24.4053 70.6192 25.252 71.1055 25.8906C71.5977 26.5293 72.254 26.8486 73.0743 26.8486C73.9004 26.8486 74.5567 26.5264 75.043 25.8818C75.5293 25.2314 75.7725 24.3232 75.7725 23.1572C75.7725 22.1143 75.5235 21.2705 75.0254 20.626C74.5332 19.9756 73.877 19.6504 73.0567 19.6504C72.254 19.6504 71.6065 19.9697 71.1143 20.6084C70.6221 21.2471 70.376 22.1611 70.376 23.3506Z" fill="black"/>
<path d="M87.4707 23.3506C87.4707 24.7979 87.1397 25.9639 86.4776 26.8486C85.8155 27.7334 84.919 28.1758 83.7881 28.1758C82.6338 28.1758 81.7256 27.8096 81.0635 27.0772V31.6563H79.4375V18.4902H80.9229L81.002 19.5449C81.6641 18.7246 82.584 18.3145 83.7618 18.3145C84.9043 18.3145 85.8067 18.7451 86.4688 19.6064C87.1368 20.4678 87.4707 21.666 87.4707 23.2012V23.3506ZM85.8448 23.166C85.8448 22.0938 85.6163 21.2471 85.1592 20.626C84.7022 20.0049 84.0752 19.6943 83.2784 19.6943C82.294 19.6943 81.5557 20.1309 81.0635 21.0039V25.5479C81.5499 26.415 82.294 26.8486 83.2959 26.8486C84.0752 26.8486 84.6934 26.541 85.1504 25.9258C85.6133 25.3047 85.8448 24.3848 85.8448 23.166Z" fill="black"/>
<path d="M34.1072 0.790207H23.4925V28.1744H30.1023V19.5612H34.1072C40.3175 19.5612 43.9228 15.6128 43.9228 10.1757C43.9228 4.73853 40.3175 0.790207 34.1072 0.790207ZM33.4212 13.7523H30.1023V6.59911H33.4212C35.825 6.59911 37.198 7.91551 37.198 10.1757C37.198 12.4367 35.825 13.7523 33.4212 13.7523Z" fill="black"/>
<path d="M12.2177 11.6923C10.1865 11.1194 8.89882 10.6911 8.26845 10.2906C7.75482 9.9476 7.43964 9.46001 7.43964 8.88801C7.43964 7.60033 8.4696 6.62784 10.7872 6.62784C12.9899 6.62784 14.1636 7.5716 14.1636 8.97331H20.8013C20.8013 3.85135 16.5099 0.446289 11.1015 0.446289C7.8976 0.446289 5.43629 1.13413 3.49041 2.79266C1.77351 4.25274 0.743556 6.34139 0.743556 8.94547C0.743556 11.2065 1.43049 12.8372 2.48919 13.9812C3.49041 15.0678 5.5216 16.3563 8.69768 17.2148C10.9884 17.8443 12.6191 18.3309 13.3626 18.8167C14.1348 19.3034 14.336 19.7327 14.336 20.3047C14.336 21.5349 13.1058 22.3646 10.6436 22.3646C8.35376 22.3646 7.12445 21.5061 7.03915 20.0182H0.314331C0.314331 25.1976 4.54911 28.5156 10.6436 28.5156C16.5674 28.5156 21.0303 24.8528 21.0303 20.1888C21.0303 18.4719 20.716 16.9849 19.4849 15.4683C18.3983 14.0962 16.2244 12.866 12.2177 11.6923Z" fill="black"/>
</svg>
