<svg width="85" height="22" viewBox="0 0 85 22" fill="none" xmlns="http://www.w3.org/2000/svg">
<path d="M31.6769 4.70385H26.9888C26.8336 4.70375 26.6835 4.76001 26.5655 4.8625C26.4475 4.96498 26.3694 5.10695 26.3452 5.26282L24.4491 17.4856C24.4404 17.5423 24.4439 17.6003 24.4593 17.6555C24.4747 17.7107 24.5018 17.7619 24.5385 17.8055C24.5753 17.849 24.6208 17.884 24.6722 17.908C24.7235 17.9319 24.7793 17.9443 24.8357 17.9442H27.0738C27.2291 17.9443 27.3794 17.8879 27.4974 17.7853C27.6154 17.6826 27.6935 17.5405 27.7175 17.3845L28.2289 14.0879C28.2529 13.932 28.3309 13.7899 28.4488 13.6873C28.5666 13.5847 28.7167 13.5283 28.8719 13.5282H30.3559C33.444 13.5282 35.2263 12.0088 35.6917 8.99788C35.9015 7.68061 35.7007 6.64561 35.094 5.92076C34.4277 5.12482 33.2459 4.70385 31.6769 4.70385ZM32.2177 9.16794C31.9613 10.8783 30.6761 10.8783 29.4333 10.8783H28.7259L29.2222 7.68409C29.2367 7.59064 29.2835 7.50553 29.3543 7.44408C29.425 7.38262 29.515 7.34885 29.6081 7.34885H29.9323C30.7789 7.34885 31.5775 7.34885 31.9901 7.83952C32.2362 8.13224 32.3116 8.56715 32.2177 9.16794ZM45.6902 9.11288H43.4453C43.3522 9.11288 43.2622 9.14665 43.1915 9.20811C43.1207 9.26956 43.0739 9.35467 43.0593 9.44812L42.9599 10.0865L42.803 9.85515C42.3169 9.13797 41.2332 8.89821 40.1515 8.89821C37.6707 8.89821 35.5519 10.8086 35.1392 13.4885C34.9247 14.8252 35.2297 16.1035 35.9755 16.9949C36.6597 17.8145 37.6385 18.1561 38.8032 18.1561C40.802 18.1561 41.9105 16.8492 41.9105 16.8492L41.8104 17.4835C41.8015 17.5402 41.8047 17.5982 41.82 17.6535C41.8352 17.7088 41.8621 17.7601 41.8987 17.8038C41.9353 17.8475 41.9808 17.8826 42.0321 17.9067C42.0833 17.9309 42.1391 17.9434 42.1956 17.9435H44.2178C44.3731 17.9436 44.5233 17.8872 44.6413 17.7846C44.7594 17.682 44.8374 17.5398 44.8615 17.3838L46.0748 9.57149C46.0837 9.51491 46.0804 9.45703 46.0652 9.40186C46.05 9.34668 46.0232 9.29552 45.9866 9.25192C45.9501 9.20831 45.9046 9.1733 45.8534 9.14929C45.8023 9.12529 45.7466 9.11286 45.6902 9.11288ZM42.561 13.5554C42.3444 14.8594 41.3264 15.7348 40.0281 15.7348C39.3762 15.7348 38.8553 15.5222 38.5207 15.1194C38.189 14.7193 38.0628 14.1499 38.1684 13.5156C38.3706 12.2228 39.4057 11.3188 40.6841 11.3188C41.3216 11.3188 41.8399 11.5342 42.1812 11.9405C42.5233 12.351 42.659 12.9239 42.561 13.5554ZM57.6464 9.11288H55.3905C55.2841 9.11305 55.1794 9.13961 55.0854 9.19026C54.9913 9.24091 54.9109 9.31411 54.851 9.40352L51.7396 14.0635L50.4207 9.58543C50.3803 9.44885 50.2976 9.32915 50.185 9.24404C50.0724 9.15894 49.9359 9.11295 49.7956 9.11288H47.5787C47.5165 9.11271 47.4551 9.12766 47.3997 9.15648C47.3443 9.18529 47.2965 9.22715 47.2602 9.27855C47.2239 9.32996 47.2003 9.38944 47.1912 9.45203C47.1821 9.51462 47.1878 9.57851 47.2079 9.6384L49.6928 17.0528L47.3566 20.4059C47.3151 20.4653 47.2905 20.5353 47.2854 20.608C47.2804 20.6807 47.2952 20.7535 47.3281 20.8182C47.361 20.883 47.4108 20.9373 47.4721 20.9752C47.5333 21.0131 47.6037 21.0332 47.6754 21.0332H49.9286C50.0338 21.0333 50.1374 21.0075 50.2307 20.958C50.3239 20.9085 50.404 20.8367 50.4639 20.7488L57.9672 9.73667C58.0079 9.67709 58.0318 9.60733 58.0362 9.53495C58.0407 9.46257 58.0255 9.39033 57.9925 9.32607C57.9594 9.2618 57.9097 9.20796 57.8487 9.17038C57.7877 9.1328 57.7178 9.11292 57.6464 9.11288Z" fill="#253B80"/>
<path d="M65.1155 4.70385H60.4267C60.2717 4.70391 60.1217 4.76025 60.0038 4.86272C59.886 4.96519 59.8079 5.10706 59.7838 5.26282L57.8877 17.4856C57.8789 17.5422 57.8823 17.6001 57.8976 17.6553C57.9129 17.7104 57.9398 17.7616 57.9764 17.8052C58.013 17.8488 58.0585 17.8838 58.1097 17.9078C58.1609 17.9318 58.2166 17.9442 58.273 17.9442H60.679C60.7875 17.944 60.8925 17.9045 60.9749 17.8327C61.0573 17.7609 61.1119 17.6615 61.1287 17.5525L61.6668 14.0878C61.6908 13.932 61.7688 13.7899 61.8867 13.6873C62.0045 13.5847 62.1546 13.5283 62.3098 13.5282H63.7932C66.8819 13.5282 68.6635 12.0088 69.1297 8.99788C69.3401 7.68061 69.1379 6.64561 68.5312 5.92076C67.8656 5.12482 66.6845 4.70385 65.1155 4.70385ZM65.6563 9.16794C65.4006 10.8783 64.1153 10.8783 62.8719 10.8783H62.1651L62.6621 7.68409C62.6764 7.59064 62.723 7.50546 62.7937 7.44396C62.8644 7.38247 62.9543 7.34873 63.0474 7.34885H63.3716C64.2175 7.34885 65.0167 7.34885 65.4294 7.83951C65.6755 8.13224 65.7502 8.56715 65.6563 9.16794ZM79.1281 9.11288H76.8845C76.7915 9.11262 76.7014 9.14631 76.6307 9.20783C76.56 9.26934 76.5134 9.35461 76.4993 9.44812L76.3999 10.0865L76.2422 9.85515C75.7562 9.13797 74.6732 8.89821 73.5915 8.89821C71.1107 8.89821 68.9925 10.8086 68.5799 13.4885C68.366 14.8252 68.6697 16.1035 69.4155 16.9949C70.101 17.8145 71.0785 18.1561 72.2431 18.1561C74.242 18.1561 75.3504 16.8492 75.3504 16.8492L75.2503 17.4835C75.2414 17.5403 75.2447 17.5984 75.26 17.6538C75.2754 17.7092 75.3024 17.7606 75.3391 17.8043C75.3759 17.848 75.4216 17.8832 75.473 17.9072C75.5244 17.9312 75.5804 17.9436 75.637 17.9435H77.6584C77.8136 17.9434 77.9637 17.887 78.0816 17.7843C78.1994 17.6817 78.2774 17.5397 78.3014 17.3838L79.5154 9.57148C79.524 9.51473 79.5204 9.45675 79.5049 9.40153C79.4894 9.34631 79.4623 9.29516 79.4255 9.25159C79.3887 9.20802 79.3431 9.17306 79.2918 9.14912C79.2404 9.12517 79.1846 9.11281 79.1281 9.11288ZM75.9989 13.5554C75.7836 14.8594 74.7643 15.7348 73.466 15.7348C72.8155 15.7348 72.2932 15.5222 71.9586 15.1194C71.6269 14.7193 71.5021 14.1499 71.6063 13.5156C71.8099 12.2228 72.8436 11.3188 74.122 11.3188C74.7595 11.3188 75.2778 11.5342 75.6191 11.9405C75.9626 12.351 76.0983 12.9239 75.9989 13.5554ZM81.7748 5.03909L79.8506 17.4856C79.8418 17.5422 79.8452 17.6001 79.8605 17.6553C79.8758 17.7104 79.9027 17.7616 79.9393 17.8052C79.9759 17.8488 80.0214 17.8838 80.0726 17.9078C80.1238 17.9318 80.1795 17.9442 80.2359 17.9442H82.1703C82.4918 17.9442 82.7646 17.7072 82.814 17.3845L84.7114 5.16245C84.7202 5.1058 84.7168 5.04788 84.7015 4.99267C84.6862 4.93746 84.6594 4.88628 84.6227 4.84264C84.5861 4.799 84.5407 4.76393 84.4895 4.73985C84.4383 4.71577 84.3826 4.70325 84.3261 4.70315H82.16C82.067 4.70349 81.9772 4.73748 81.9066 4.79903C81.836 4.86059 81.7893 4.94569 81.7748 5.03909Z" fill="#179BD7"/>
<path d="M4.9807 20.3195L5.3392 18.0041L4.54061 17.9853H0.727268L3.37735 0.900483C3.38524 0.848281 3.41131 0.8007 3.45082 0.766413C3.49033 0.732126 3.54065 0.713417 3.59259 0.713695H10.0224C12.157 0.713695 13.6301 1.16533 14.3992 2.05676C14.7598 2.47494 14.9894 2.91194 15.1005 3.39285C15.217 3.89745 15.2191 4.50033 15.1053 5.23563L15.0971 5.2893V5.76045L15.4576 5.96815C15.7329 6.10994 15.9803 6.30175 16.1877 6.53409C16.4961 6.89164 16.6956 7.34606 16.7799 7.88482C16.867 8.43891 16.8382 9.09824 16.6956 9.8447C16.5311 10.7034 16.2651 11.4512 15.9059 12.0632C15.589 12.6113 15.1629 13.0861 14.6549 13.4571C14.1778 13.8014 13.6109 14.0628 12.97 14.23C12.349 14.3945 11.6409 14.4775 10.8642 14.4775H10.3638C10.006 14.4775 9.65844 14.6085 9.38561 14.8434C9.11318 15.0807 8.93245 15.4087 8.87561 15.7689L8.83791 15.9773L8.20453 20.0581L8.17574 20.2079C8.1682 20.2553 8.15517 20.279 8.13598 20.2951C8.11738 20.3105 8.09419 20.3191 8.07017 20.3195H4.9807Z" fill="#253B80"/>
<path d="M15.799 5.34367C15.7798 5.46843 15.7579 5.59597 15.7332 5.727C14.8853 10.1535 11.9843 11.6826 8.27924 11.6826H6.39279C5.93969 11.6826 5.55787 12.0172 5.48727 12.4716L4.52142 18.6997L4.24791 20.4651C4.23702 20.5352 4.24118 20.6067 4.26011 20.675C4.27904 20.7432 4.31228 20.8065 4.35756 20.8604C4.40284 20.9143 4.45907 20.9576 4.52239 20.9873C4.5857 21.017 4.6546 21.0324 4.72433 21.0325H8.07017C8.46638 21.0325 8.80295 20.7397 8.86533 20.3425L8.89824 20.1696L9.5282 16.1049L9.56864 15.8819C9.63033 15.4832 9.96759 15.1905 10.3638 15.1905H10.8642C14.1059 15.1905 16.6435 13.8523 17.3852 9.97991C17.6951 8.36224 17.5346 7.01152 16.7148 6.06155C16.455 5.76768 16.1446 5.52441 15.799 5.34367Z" fill="#179BD7"/>
<path d="M14.912 4.98403C14.6412 4.90439 14.3658 4.84224 14.0873 4.79794C13.5371 4.71196 12.981 4.67071 12.4244 4.67457H7.38469C7.19289 4.67442 7.00737 4.74404 6.86166 4.87085C6.71595 4.99765 6.61967 5.17327 6.59021 5.36597L5.51811 12.2702L5.48727 12.4716C5.52067 12.2518 5.63033 12.0514 5.79642 11.9067C5.96251 11.762 6.17406 11.6825 6.39279 11.6826H8.27924C11.9843 11.6826 14.8853 10.1535 15.7332 5.727C15.7579 5.59597 15.7798 5.46843 15.799 5.34367C15.5753 5.22437 15.3421 5.12435 15.1019 5.04466C15.0389 5.02342 14.9756 5.00321 14.912 4.98403Z" fill="#222D65"/>
<path d="M6.59021 5.36597C6.61967 5.17327 6.71595 4.99765 6.86166 4.87085C7.00737 4.74404 7.19289 4.67442 7.38469 4.67457H12.4244C13.0214 4.67457 13.5787 4.7143 14.0873 4.79794C14.4315 4.85294 14.7703 4.93589 15.1019 5.04466C15.3521 5.129 15.5844 5.22867 15.799 5.34367C16.0513 3.70788 15.7977 2.59412 14.9278 1.58561C13.9688 0.475333 12.2379 0 10.0231 0H3.59331C3.14089 0 2.75496 0.334545 2.68504 0.789667L0.00685398 18.0501C-0.00562056 18.1303 -0.000874421 18.2122 0.0207659 18.2903C0.0424063 18.3684 0.0804272 18.4408 0.132213 18.5025C0.184 18.5642 0.248322 18.6138 0.320756 18.6479C0.39319 18.6819 0.472017 18.6996 0.551814 18.6997L4.52142 18.6997L5.51811 12.2702L6.59021 5.36597Z" fill="#253B80"/>
</svg>
